HIERARCHY
ROOT Hips
{
	OFFSET 0.000000 0.000000 0.000000
	CHANNELS 6 Xposition Yposition Zposition Zrotation Yrotation Xrotation 
	JOINT LeftUpLeg_virtual
	{
		OFFSET 0.000000 0.000000 0.000000
		CHANNELS 3 Zrotation Yrotation Xrotation
		JOINT LeftUpLeg
		{
			OFFSET 10.205400 -3.823500 0.155100
			CHANNELS 3 Zrotation Yrotation Xrotation
			JOINT LeftLeg
			{
				OFFSET 0.708757 -12.982077 0.567790
				CHANNELS 3 Zrotation Yrotation Xrotation
				JOINT LeftFoot
				{
					OFFSET -0.708756 -10.717838 -2.184338
					CHANNELS 3 Zrotation Yrotation Xrotation
					JOINT LeftToeBase
					{
						OFFSET 0.108149 -7.191104 7.560241
						CHANNELS 3 Zrotation Yrotation Xrotation
						End Site
						{
							OFFSET 0.000000 0.000000 0.000000
						}
					}
				}
			}
		}
	}
	JOINT RightUpLeg_virtual
	{
		OFFSET 0.000000 0.000000 0.000000
		CHANNELS 3 Zrotation Yrotation Xrotation
		JOINT RightUpLeg
		{
			OFFSET -10.205400 -3.823500 0.005500
			CHANNELS 3 Zrotation Yrotation Xrotation
			JOINT RightLeg
			{
				OFFSET -0.708756 -12.982134 0.610632
				CHANNELS 3 Zrotation Yrotation Xrotation
				JOINT RightFoot
				{
					OFFSET 0.708754 -10.717769 -1.945823
					CHANNELS 3 Zrotation Yrotation Xrotation
					JOINT RightToeBase
					{
						OFFSET -0.108140 -7.191069 7.372968
						CHANNELS 3 Zrotation Yrotation Xrotation
						End Site
						{
							OFFSET 0.000000 0.000000 0.000000
						}
					}
				}
			}
		}
	}
	JOINT Spine_virtual
	{
		OFFSET 0.000000 0.000000 0.000000
		CHANNELS 3 Zrotation Yrotation Xrotation
		JOINT Spine
		{
			OFFSET 0.000000 6.876099 0.125700
			CHANNELS 3 Zrotation Yrotation Xrotation
			JOINT Spine1
			{
				OFFSET 0.000000 8.022060 0.146608
				CHANNELS 3 Zrotation Yrotation Xrotation
				JOINT Spine2
				{
					OFFSET 0.000000 9.168068 0.167552
					CHANNELS 3 Zrotation Yrotation Xrotation
					JOINT Neck_virtual
					{
						OFFSET 0.000000 0.000000 0.000000
						CHANNELS 3 Zrotation Yrotation Xrotation
						JOINT Neck
						{
							OFFSET 0.000000 10.314075 0.188496
							CHANNELS 3 Zrotation Yrotation Xrotation
							JOINT Head
							{
								OFFSET 0.000000 7.643700 -2.377400
								CHANNELS 3 Zrotation Yrotation Xrotation
								End Site
								{
									OFFSET 0.000000 0.000000 0.000000
								}
							}
						}
					}
					JOINT LeftShoulder_virtual
					{
						OFFSET 0.000000 0.000000 0.000000
						CHANNELS 3 Zrotation Yrotation Xrotation
						JOINT LeftShoulder
						{
							OFFSET 4.392200 8.824978 0.174984
							CHANNELS 3 Zrotation Yrotation Xrotation
							JOINT LeftArm
							{
								OFFSET 8.771219 -2.981674 -0.026999
								CHANNELS 3 Zrotation Yrotation Xrotation
								JOINT LeftForeArm
								{
									OFFSET 8.512804 0.000000 -0.000000
									CHANNELS 3 Zrotation Yrotation Xrotation
									JOINT LeftHand
									{
										OFFSET 18.484802 0.000000 -0.000000
										CHANNELS 3 Zrotation Yrotation Xrotation
										End Site
										{
											OFFSET 0.000000 0.000000 0.000000
										}
									}
								}
							}
						}
					}
					JOINT RightShoulder_virtual
					{
						OFFSET 0.000000 0.000000 0.000000
						CHANNELS 3 Zrotation Yrotation Xrotation
						JOINT RightShoulder
						{
							OFFSET -4.392200 8.824993 0.141379
							CHANNELS 3 Zrotation Yrotation Xrotation
							JOINT RightArm
							{
								OFFSET -8.771282 -2.981682 -0.094208
								CHANNELS 3 Zrotation Yrotation Xrotation
								JOINT RightForeArm
								{
									OFFSET -8.494598 0.000000 0.000000
									CHANNELS 3 Zrotation Yrotation Xrotation
									JOINT RightHand
									{
										OFFSET -18.483803 0.000000 0.000001
										CHANNELS 3 Zrotation Yrotation Xrotation
										End Site
										{
											OFFSET 0.000000 0.000000 0.000000
										}
									}
								}
							}
						}
					}
				}
			}
		}
	}
}
MOTION
Frames: 10
Frame Time: 0.033333
-3.632665 36.071678 19.869890 -179.929490 3.535002 -179.557204 -1.756651 -4.165121 10.345743 0.846322 0.062160 -19.509155 5.578374 0.222956 22.241193 -11.592236 -1.799696 9.617591 0.000000 0.000000 0.000000 2.382597 -1.494739 9.514419 0.301633 -7.945140 -16.562753 -3.665509 2.349098 17.191035 9.838017 9.441760 13.377324 0.000000 0.000000 0.000000 0.077831 -0.527987 -1.237136 3.090673 0.163112 -4.197900 0.659209 -3.609924 10.511723 0.033708 0.009204 0.086368 0.438776 -2.085811 11.910759 1.523049 -1.174070 -0.271109 0.000000 0.000000 0.000000 1.658252 -1.778710 9.051035 -10.137230 -3.378934 5.324168 -52.102203 19.355050 31.980103 -93.058930 -87.740419 114.892524 0.000000 0.000000 0.000000 -1.842232 -0.075492 8.503584 28.237785 13.071765 9.728545 37.101212 -28.475825 19.848846 -37.508749 81.384545 -40.688151 0.000000 0.000000 0.000000 
-4.512796 35.982609 20.017466 -179.885572 3.637756 -179.519788 -1.765024 -4.118247 10.412329 -1.123423 0.215903 -19.163948 6.193120 0.590551 21.927574 -11.345500 -2.105977 7.335017 0.000000 0.000000 0.000000 2.337436 -1.502117 9.432752 -1.381194 -7.424714 -17.238438 -3.867861 3.545733 17.337783 11.219690 9.356656 13.919026 0.000000 0.000000 0.000000 0.140758 -0.412074 -1.235909 2.986418 0.117369 -4.379330 0.550209 -3.602162 10.535070 0.023120 -0.000288 -0.093347 0.293150 -2.155763 11.899083 1.281378 -0.934055 -0.774070 0.000000 0.000000 0.000000 1.524806 -1.784304 9.135873 -10.304544 -2.980095 4.958811 -52.358687 20.207308 31.639912 -106.644115 -87.832100 128.861341 0.000000 0.000000 0.000000 -1.971160 -0.049751 8.539681 28.516405 12.927916 9.962026 36.235274 -29.035691 20.305294 -34.584953 80.392781 -37.127382 0.000000 0.000000 0.000000 
-5.420072 35.890869 20.271379 -179.853607 3.854041 -179.512357 -1.734840 -4.116077 10.558912 -3.291005 0.485583 -18.940116 6.857113 1.265862 21.377037 -11.048308 -2.170032 5.262087 0.000000 0.000000 0.000000 2.308163 -1.440880 9.368074 -3.125729 -6.857124 -18.085677 -4.153501 4.425871 17.119357 12.673758 9.140184 15.083720 0.000000 0.000000 0.000000 0.238176 -0.336966 -0.931286 2.899892 0.047883 -4.463936 0.434315 -3.637123 10.140115 -0.045353 -0.046985 0.171549 0.086076 -1.924583 11.875458 1.019569 -0.665437 -1.146958 0.000000 0.000000 0.000000 1.315025 -1.698749 9.096805 -10.494938 -2.622112 4.694307 -52.742571 20.957761 30.879934 -116.160617 -87.959627 138.800454 0.000000 0.000000 0.000000 -2.127566 0.062578 8.553404 28.610897 13.078400 10.123257 35.558610 -29.162299 20.356301 -32.919685 79.751645 -34.966860 0.000000 0.000000 0.000000 
-6.336329 35.821789 20.632833 -179.791903 4.293827 -179.395397 -1.658532 -4.102712 10.695290 -5.553797 0.934604 -18.927214 7.534972 2.118246 20.730061 -10.764630 -2.000359 3.875940 0.000000 0.000000 0.000000 2.303148 -1.331286 9.272502 -4.820276 -6.406949 -19.063592 -4.507175 4.901824 16.394004 14.087336 8.805330 16.730914 0.000000 0.000000 0.000000 0.373517 -0.170189 -0.685631 2.781746 0.092948 -4.489364 0.305058 -3.621048 10.129429 -0.035835 -0.040715 0.079345 -0.067354 -1.764492 11.885921 0.701159 -0.395645 -1.800053 0.000000 0.000000 0.000000 1.145917 -1.758787 9.263548 -10.816212 -2.385139 4.383045 -53.315077 21.565264 29.837552 -126.281455 -88.091866 149.335639 0.000000 0.000000 0.000000 -2.305100 -0.018316 8.576902 28.639321 13.080862 10.300721 35.447326 -29.042436 20.025742 -33.070113 79.429622 -34.732963 0.000000 0.000000 0.000000 
-7.207830 35.790287 21.066828 -179.706362 4.979182 -179.331739 -1.622424 -4.103243 10.815943 -7.759241 1.512837 -19.048861 8.290190 3.106856 19.954717 -10.454438 -1.579322 3.112496 0.000000 0.000000 0.000000 2.316122 -1.177164 9.224250 -6.302409 -6.285357 -20.072507 -4.874032 4.964809 15.294397 15.362205 8.424950 18.733151 0.000000 0.000000 0.000000 0.545175 -0.034341 -0.240741 2.623540 0.123403 -4.487903 0.152970 -3.578884 9.960064 -0.032515 -0.006422 0.144598 -0.173545 -2.023794 11.869379 0.269601 -0.200250 -2.320257 0.000000 0.000000 0.000000 0.976052 -1.890933 9.279421 -11.038831 -2.271844 4.251013 -53.910782 21.977078 28.751265 -133.535621 -88.366255 156.973661 0.000000 0.000000 0.000000 -2.396965 -0.019440 8.578266 28.594514 13.164861 10.505828 35.566485 -28.873429 19.581427 -33.315843 79.364899 -34.710943 0.000000 0.000000 0.000000 
-8.012782 35.800953 21.533451 -179.567244 5.894668 -179.323953 -1.627903 -4.170453 10.910210 -9.764506 2.111497 -19.238664 9.119716 4.062871 19.021952 -10.203051 -1.021403 2.842664 0.000000 0.000000 0.000000 2.267620 -0.985469 9.175504 -7.492758 -6.325184 -21.010149 -5.170802 4.812662 13.992321 16.482947 8.101205 20.754998 0.000000 0.000000 0.000000 0.738438 -0.042009 0.267082 2.452696 0.050632 -4.374733 0.019714 -3.604175 9.789634 -0.071172 0.074002 0.108452 -0.376385 -1.864902 11.934050 -0.067614 0.133196 -2.804095 0.000000 0.000000 0.000000 0.831151 -1.761877 9.439017 -11.150181 -2.160636 4.026088 -54.440914 22.406634 27.648558 -140.936159 -88.523288 164.691297 0.000000 0.000000 0.000000 -2.618181 0.119392 8.720403 28.580749 13.372934 10.722963 36.070263 -28.515078 19.086194 -34.269989 79.467181 -35.479213 0.000000 0.000000 0.000000 
-8.734493 35.846714 21.979837 -179.383198 6.913663 -179.399686 -1.691077 -4.402400 10.911274 -11.434666 2.883886 -19.639470 9.810361 4.995804 18.062188 -9.957208 -0.407879 3.608805 0.000000 0.000000 0.000000 2.236307 -0.701579 9.057948 -8.450436 -6.632131 -21.861692 -5.412705 4.695665 12.597075 17.437316 7.899183 23.115945 0.000000 0.000000 0.000000 0.901550 0.077142 0.778351 2.219594 0.096210 -4.227426 -0.027007 -3.607816 9.696689 -0.091206 -0.104891 0.137513 -0.404153 -1.961507 11.958414 -0.490321 0.338145 -3.353814 0.000000 0.000000 0.000000 0.780887 -1.674411 9.499157 -11.114677 -2.247818 4.002805 -55.063670 22.635448 26.776725 -150.404181 -88.759510 174.399646 0.000000 0.000000 0.000000 -2.638187 0.123918 8.766624 28.531478 13.611283 10.839681 36.544784 -28.207168 18.624495 -35.350952 79.659117 -36.361796 0.000000 0.000000 0.000000 
-9.351768 35.900105 22.402847 -179.503341 8.630686 -179.626503 -1.895556 -4.075218 10.962813 -12.772971 3.580886 -20.041945 10.129283 6.330840 17.171302 -9.950795 0.146308 4.481967 0.000000 0.000000 0.000000 2.406155 -0.864737 8.685593 -9.104584 -7.561428 -22.735055 -6.128467 4.083465 10.925203 17.324937 7.625841 23.583390 0.000000 0.000000 0.000000 0.904133 0.230666 1.301671 1.806308 0.231351 -3.976604 -0.164808 -3.414062 9.675748 -0.067936 0.012735 0.066681 -0.459693 -1.618193 11.906892 -0.734936 0.721196 -3.904623 0.000000 0.000000 0.000000 0.805611 -1.589191 9.482184 -10.830818 -2.258424 3.772726 -55.329617 23.080239 26.275750 -157.380304 -88.720073 -178.466996 0.000000 0.000000 0.000000 -2.839181 0.165189 8.726126 28.769976 13.695112 11.020560 37.120616 -27.925536 18.158502 -36.497871 79.639172 -37.612742 0.000000 0.000000 0.000000 
-9.877347 35.962502 22.792742 -179.990648 9.931491 -179.814647 -2.608903 -3.628676 10.985043 -13.595342 3.813448 -20.470815 10.437026 7.845790 16.385820 -9.483279 0.123087 5.453672 0.000000 0.000000 0.000000 2.866386 -1.364265 8.439667 -9.212060 -8.931784 -23.155024 -7.305179 3.154178 9.337431 15.939459 7.020099 23.309646 0.000000 0.000000 0.000000 0.616047 0.284478 1.653516 1.247210 0.195014 -3.777928 -0.300657 -3.340675 9.535051 -0.026587 0.003564 0.025638 -0.498146 -1.878761 11.900057 -1.092795 0.918368 -4.160185 0.000000 0.000000 0.000000 0.950909 -1.486754 9.496348 -10.457150 -2.342840 3.738049 -55.657040 23.410436 25.894027 -166.783575 -88.805969 -168.978552 0.000000 0.000000 0.000000 -2.853017 0.231144 8.848504 28.760871 13.903043 11.169938 37.510330 -27.699492 18.018635 -37.077952 79.734727 -38.167681 0.000000 0.000000 0.000000 
-10.311176 36.047401 23.143204 -179.839468 11.201789 -179.811396 -2.865080 -3.302529 10.943612 -14.080003 4.277887 -20.954916 10.514135 8.713311 15.847063 -9.003501 0.416630 6.544023 0.000000 0.000000 0.000000 3.270343 -1.128567 8.305336 -7.926511 -11.217481 -22.716135 -7.487320 1.622704 9.678726 13.775301 6.308536 21.030608 0.000000 0.000000 0.000000 0.635861 0.386622 1.813825 0.980066 0.132828 -3.661219 -0.264549 -3.283423 9.456507 -0.010650 0.013148 -0.021913 -0.566572 -1.720038 11.920867 -1.409613 1.102195 -4.430745 0.000000 0.000000 0.000000 0.864945 -1.429485 9.538118 -10.109669 -2.409055 3.691007 -55.743571 23.778897 25.712032 -175.412276 -88.897309 -160.330126 0.000000 0.000000 0.000000 -2.900058 0.320330 8.862158 28.767671 14.021428 11.227851 37.579448 -27.570617 18.207848 -37.062778 79.582666 -38.155827 0.000000 0.000000 0.000000 
